<?xml version="1.0" encoding="UTF-8"?>
<svg version="1.1" xmlns="http://www.w3.org/2000/svg" width="512" height="512">
<path d="M0 0 C1.68092452 -0.00389642 3.36184807 -0.008233 5.04277039 -0.01298523 C8.55352988 -0.02041248 12.06418875 -0.02018202 15.57495117 -0.01489258 C20.03961988 -0.00910749 24.50387245 -0.02602277 28.96847248 -0.04923725 C32.43723394 -0.06408119 35.90589768 -0.06483184 39.37468529 -0.06172752 C41.01906342 -0.06223556 42.66344778 -0.06737415 44.30779457 -0.07753944 C58.40344413 -0.15399037 70.78384629 0.88697215 82.63671875 9.30078125 C83.68859375 10.02265625 84.74046875 10.74453125 85.82421875 11.48828125 C92.72650788 18.39057038 96.11256216 26.02727426 98.63671875 35.30078125 C99.24668701 35.27983398 99.85665527 35.25888672 100.48510742 35.23730469 C103.26464169 35.15385264 106.04391195 35.10203114 108.82421875 35.05078125 C109.78392578 35.01726562 110.74363281 34.98375 111.73242188 34.94921875 C118.89456598 34.85008873 118.89456598 34.85008873 122.75 37.19140625 C125.85093007 40.65828458 125.75937214 42.72877927 125.75024414 47.31103516 C125.75016861 48.57219147 125.75009308 49.83334778 125.75001526 51.13272095 C125.74490824 52.51426228 125.73969224 53.89580321 125.734375 55.27734375 C125.73251019 56.68696035 125.73108658 58.09657759 125.73008728 59.50619507 C125.72626708 63.21832057 125.71644103 66.93040703 125.7053833 70.64251709 C125.6951585 74.42964144 125.69058737 78.21677208 125.68554688 82.00390625 C125.67481833 89.43621573 125.65774786 96.86849302 125.63671875 104.30078125 C126.38982834 104.29634003 127.14293793 104.2918988 127.91886902 104.287323 C135.02519698 104.24720585 142.13148554 104.21677631 149.23789501 104.19715691 C152.89114918 104.18673121 156.54430956 104.1725943 160.19750977 104.14990234 C163.72475923 104.12813049 167.25191863 104.11620349 170.77923012 104.11102676 C172.77612404 104.10554713 174.77298186 104.08994109 176.76982117 104.07418823 C177.99070938 104.07403717 179.2115976 104.07388611 180.46948242 104.07373047 C181.54203781 104.06928925 182.6145932 104.06484802 183.71965027 104.06027222 C187.54755649 104.3758788 190.31787179 105.25777935 193.34187317 107.64929199 C194.8804671 109.61166603 195.56960702 111.35777545 196.35424805 113.72460938 C196.65433273 114.61563354 196.95441742 115.50665771 197.26359558 116.42468262 C197.57621841 117.38410767 197.88884125 118.34353271 198.2109375 119.33203125 C198.70398125 120.81322449 198.70398125 120.81322449 199.20698547 122.32434082 C199.89949997 124.41094226 200.58764224 126.49899913 201.27172852 128.58837891 C202.32121153 131.79160262 203.38502251 134.98978971 204.45117188 138.1875 C205.1219441 140.21456256 205.79189403 142.24189745 206.4609375 144.26953125 C206.77963303 145.2289563 207.09832855 146.18838135 207.42668152 147.17687988 C207.86262383 148.51341614 207.86262383 148.51341614 208.30737305 149.87695312 C208.56479782 150.66066284 208.8222226 151.44437256 209.08744812 152.25183105 C209.63671875 154.30078125 209.63671875 154.30078125 209.63671875 157.30078125 C210.61543945 157.27983398 211.59416016 157.25888672 212.60253906 157.23730469 C216.24024779 157.16480162 219.87789291 157.11894492 223.51611328 157.08105469 C225.08946479 157.06096245 226.66274183 157.03368326 228.23583984 156.99902344 C230.49986147 156.95039631 232.76289448 156.9277899 235.02734375 156.91015625 C235.72853333 156.88951111 236.4297229 156.86886597 237.15216064 156.84759521 C240.18005503 156.84620996 242.27401956 157.0809062 244.88232422 158.66210938 C247.61190486 162.7674959 248.86747078 167.22429528 250.31640625 171.91015625 C251.00509994 174.048212 251.69390556 176.1862317 252.3828125 178.32421875 C253.44912002 181.68443565 254.51028092 185.04620918 255.56787109 188.40917969 C256.596122 191.66379238 257.64301428 194.91198561 258.69140625 198.16015625 C258.99787079 199.15625916 259.30433533 200.15236206 259.62008667 201.1786499 C261.68157379 207.54159178 264.38748786 212.16901097 268.63671875 217.30078125 C273.65604037 225.44711339 273.74790945 235.02973093 272.63671875 244.30078125 C271.79076745 247.72260672 270.5660346 250.36486582 268.63671875 253.30078125 C268.20101563 253.99429688 267.7653125 254.6878125 267.31640625 255.40234375 C259.45638195 266.87024806 249.35696609 269.47268959 236.41992188 272.39892578 C228.43703605 274.25876833 220.571777 276.52788666 212.69921875 278.80078125 C212.02977234 278.99214661 211.36032593 279.18351196 210.67059326 279.38067627 C203.61757004 281.40097794 196.68527317 283.47672737 189.97827148 286.48632812 C183.00183855 288.91291349 175.51226246 288.44664004 168.22750854 288.44122314 C166.35181976 288.44567983 166.35181976 288.44567983 164.43823826 288.45022655 C160.97886438 288.45826262 157.51951128 288.46008422 154.06012917 288.46082401 C150.32444838 288.4626805 146.58877823 288.47023081 142.85310364 288.47695923 C134.68968397 288.49051893 126.52626923 288.49656358 118.36284018 288.50096989 C113.26152664 288.50373631 108.160215 288.50797438 103.05890274 288.51247406 C88.92322598 288.52466363 74.78755072 288.53496357 60.65186882 288.53834915 C59.74782832 288.53856872 58.84378782 288.53878828 57.91235215 288.5390145 C57.00620079 288.53923278 56.10004943 288.53945106 55.16643894 288.53967595 C53.33036033 288.54011941 51.49428173 288.54056597 49.65820312 288.54101562 C48.74745294 288.54123705 47.83670275 288.54145848 46.89835407 288.54168662 C32.14771196 288.54563293 17.3971193 288.56308325 2.64649628 288.58637515 C-12.51290642 288.61011849 -27.67228434 288.62255236 -42.83170593 288.62371707 C-51.33703105 288.62463215 -59.84229172 288.63034237 -68.34759903 288.64853668 C-75.59125024 288.66397797 -82.83481708 288.66903445 -90.07848163 288.66079858 C-93.77024016 288.65690629 -97.46182899 288.65775161 -101.15356636 288.67185593 C-105.16655494 288.68704655 -109.17916536 288.67868643 -113.19216919 288.66827393 C-114.34404854 288.67633033 -115.49592789 288.68438673 -116.68271267 288.69268727 C-135.08540343 288.58152844 -146.31837156 282.41406563 -159.76855469 270.67773438 C-162.0940567 268.66979938 -164.47652412 266.73523747 -166.86328125 264.80078125 C-171.58085539 260.96169966 -176.23176379 257.04979071 -180.86132812 253.10546875 C-182.35786119 251.83238291 -183.86045104 250.56642738 -185.36328125 249.30078125 C-186.18183594 248.57503906 -187.00039062 247.84929687 -187.84375 247.1015625 C-190.77526322 245.00632592 -193.32589437 244.21759475 -196.80078125 243.30078125 C-205.79092742 240.68160481 -212.99714573 235.91677599 -217.8828125 227.765625 C-222.95745072 217.83571332 -224.34039584 207.43098501 -220.92578125 196.55078125 C-218.01307737 189.47856859 -212.69836474 183.52417024 -206.36328125 179.30078125 C-206.05617847 176.64020812 -205.89650549 174.15333978 -205.86328125 171.48828125 C-205.79860786 166.38370271 -205.60956788 162.47798832 -202.36328125 158.30078125 C-199.52933738 156.88380932 -197.15454387 157.18132196 -193.98583984 157.18725586 C-193.33205856 157.18710983 -192.67827728 157.18696381 -192.00468445 157.18681335 C-189.84032898 157.18751089 -187.67605921 157.19529585 -185.51171875 157.203125 C-184.01242113 157.20498974 -182.51312291 157.20641338 -181.01382446 157.20741272 C-177.06496503 157.21123346 -173.11614229 157.22105997 -169.16729736 157.2321167 C-165.13888038 157.24234034 -161.11045747 157.24691238 -157.08203125 157.25195312 C-149.1757644 157.26268263 -141.26952739 157.27975375 -133.36328125 157.30078125 C-133.18147812 156.61439575 -132.99967499 155.92801025 -132.81236267 155.2208252 C-131.16764144 149.08956325 -129.38379458 143.03817539 -127.3671875 137.01953125 C-126.95496193 135.78837585 -126.95496193 135.78837585 -126.53440857 134.53234863 C-125.95905778 132.82103733 -125.38173986 131.11038617 -124.80249023 129.40039062 C-124.21385992 127.65498947 -123.63125452 125.90754578 -123.05444336 124.15820312 C-122.21328818 121.60743507 -121.35485314 119.06309301 -120.4921875 116.51953125 C-120.23788467 115.73831909 -119.98358185 114.95710693 -119.72157288 114.15222168 C-118.3146998 110.07660619 -117.26745003 107.35646321 -113.36328125 105.30078125 C-110.06593479 104.20166576 -107.6336938 104.18683565 -104.1640625 104.203125 C-102.35131836 104.20795898 -102.35131836 104.20795898 -100.50195312 104.21289062 C-98.60799805 104.22545898 -98.60799805 104.22545898 -96.67578125 104.23828125 C-94.76442383 104.24504883 -94.76442383 104.24504883 -92.81445312 104.25195312 C-89.66404255 104.26375242 -86.51365606 104.28168807 -83.36328125 104.30078125 C-83.36328125 99.02078125 -83.36328125 93.74078125 -83.36328125 88.30078125 C-134.34828125 88.79578125 -134.34828125 88.79578125 -186.36328125 89.30078125 C-187.35328125 91.28078125 -188.34328125 93.26078125 -189.36328125 95.30078125 C-192.02880149 97.1716386 -194.19372051 97.55385839 -197.40991211 97.57543945 C-198.19430161 97.58497147 -198.9786911 97.59450348 -199.78684998 97.60432434 C-200.62547073 97.60341293 -201.46409149 97.60250153 -202.328125 97.6015625 C-203.19844864 97.60584763 -204.06877228 97.61013275 -204.96546936 97.61454773 C-206.80371227 97.62028326 -208.64197788 97.62079701 -210.48022461 97.61645508 C-213.2873419 97.61329637 -216.09340366 97.63675912 -218.90039062 97.66210938 C-220.68880076 97.66438263 -222.47721372 97.66508574 -224.265625 97.6640625 C-225.10222153 97.67327225 -225.93881805 97.68248199 -226.80076599 97.69197083 C-231.47013913 97.65504002 -234.57599931 97.34424046 -238.36328125 94.30078125 C-239.7024137 91.62251635 -239.51261791 89.53662876 -239.5402832 86.53759766 C-239.55311844 85.32939362 -239.56595367 84.12118958 -239.57917786 82.87637329 C-239.58656479 81.56494354 -239.59395172 80.25351379 -239.6015625 78.90234375 C-239.60563803 78.2361842 -239.60971355 77.57002464 -239.61391258 76.88367844 C-239.63476889 73.35832784 -239.64907292 69.83301613 -239.65844727 66.30761719 C-239.66951612 62.66677586 -239.70392156 59.02654499 -239.74361897 55.38591957 C-239.76976447 52.58577336 -239.77813714 49.78577314 -239.78172874 46.98551559 C-239.78896654 44.99128269 -239.81541331 42.99714951 -239.84211731 41.00308228 C-239.83919174 39.78857391 -239.83626617 38.57406555 -239.83325195 37.32275391 C-239.83911819 36.25401031 -239.84498444 35.18526672 -239.85102844 34.08413696 C-239.24028119 30.59887478 -238.11869924 29.45356662 -235.36328125 27.30078125 C-231.53999348 26.02635199 -227.91916207 26.11882806 -223.93359375 26.09765625 C-222.69257401 26.08910614 -222.69257401 26.08910614 -221.42648315 26.0803833 C-219.67642493 26.07094102 -217.92634898 26.06440238 -216.17626953 26.06054688 C-213.50521694 26.05084278 -210.8349345 26.0198134 -208.1640625 25.98828125 C-206.46224414 25.98175067 -204.76042029 25.97650041 -203.05859375 25.97265625 C-202.26260773 25.96030945 -201.4666217 25.94796265 -200.64651489 25.9352417 C-194.87639592 25.95830824 -191.54102231 27.12304019 -187.36328125 31.30078125 C-187.36328125 32.62078125 -187.36328125 33.94078125 -187.36328125 35.30078125 C-144.13328125 35.30078125 -100.90328125 35.30078125 -56.36328125 35.30078125 C-55.37328125 30.84578125 -55.37328125 30.84578125 -54.36328125 26.30078125 C-49.27621752 15.4643491 -41.24166371 8.14775681 -30.4296875 3.30859375 C-20.39361828 0.01011495 -10.44892682 -0.01015557 0 0 Z " fill="#010101" transform="translate(239.36328125,111.69921875)"/>
<path d="M0 0 C93.39 0 186.78 0 283 0 C285.78154525 6.95386312 288.3857862 13.79250543 290.75 20.875 C291.06582031 21.79796875 291.38164062 22.7209375 291.70703125 23.671875 C292.00480469 24.56132812 292.30257813 25.45078125 292.609375 26.3671875 C292.87717773 27.16237793 293.14498047 27.95756836 293.42089844 28.77685547 C294 31 294 31 294 35 C193.35 35 92.7 35 -11 35 C-7.78226071 23.20162259 -3.86724134 11.60172401 0 0 Z " fill="#699575" transform="translate(136,234)"/>
<path d="M0 0 C57.42 0 114.84 0 174 0 C174 5.61 174 11.22 174 17 C165.42 17 156.84 17 148 17 C148 22.94 148 28.88 148 35 C156.58 35 165.16 35 174 35 C174 40.61 174 46.22 174 52 C116.58 52 59.16 52 0 52 C0 34.84 0 17.68 0 0 Z " fill="#81B790" transform="translate(173,165)"/>
<path d="M0 0 C137.28 0 274.56 0 416 0 C420.62068966 11.55172414 420.62068966 11.55172414 422.25 16.375 C422.75273438 17.84066406 422.75273438 17.84066406 423.265625 19.3359375 C424 22 424 22 424 26 C413.35823996 26.13436835 402.80817434 25.72057452 392.1875 25.125 C390.51457701 25.03367163 388.84164387 24.9425291 387.16870117 24.8515625 C382.11206531 24.5746854 377.05597046 24.2887463 372 24 C370.85658142 23.93492249 370.85658142 23.93492249 369.69006348 23.86853027 C355.054783 23.03371499 340.42823874 22.13305447 325.8125 21 C315.00712974 20.16486534 304.19764568 19.5528617 293.375 19 C292.16520477 18.938125 292.16520477 18.938125 290.93096924 18.875 C290.1243988 18.83375 289.31782837 18.7925 288.48681641 18.75 C277.88447529 18.20741786 267.28458366 17.63773182 256.6875 17 C255.6658223 16.9386235 255.6658223 16.9386235 254.62350464 16.87600708 C244.70065516 16.27486024 234.79630874 15.51790725 224.89086914 14.6796875 C216.97380811 14.02944734 209.06466731 13.67781032 201.12719727 13.39208984 C192.76179755 13.07401381 184.43531023 12.46237435 176.09082031 11.80297852 C164.04949421 10.87771028 151.99312791 10.28192123 139.93115234 9.69750977 C139.14131958 9.658284 138.35148682 9.61905823 137.53771973 9.5786438 C136.06656569 9.50571195 134.59529831 9.43501184 133.12390137 9.36715698 C129.58558767 9.19083345 126.08589853 8.91519965 122.56689453 8.50219727 C117.94493096 7.96481801 113.33461323 7.70585219 108.6875 7.5 C107.83373779 7.45939453 106.97997559 7.41878906 106.1003418 7.37695312 C103.40034627 7.24860523 100.70020598 7.12383603 98 7 C94.43733687 6.83661022 90.87488049 6.66942906 87.3125 6.5 C86.11210083 6.44682617 86.11210083 6.44682617 84.88745117 6.39257812 C80.24200978 6.17125107 75.65470334 5.76534109 71.03610229 5.22290039 C68.43265371 4.9378903 65.83968894 4.80735912 63.22265625 4.71875 C62.21396484 4.68136719 61.20527344 4.64398438 60.16601562 4.60546875 C59.14185547 4.57066406 58.11769531 4.53585937 57.0625 4.5 C50.52253417 4.27690578 44.05427573 3.93822348 37.5480957 3.23632812 C32.73053443 2.78951397 27.8964562 2.66636943 23.0625 2.5 C15.34312343 2.23330369 7.68574781 1.78002909 0 1 C0 0.67 0 0.34 0 0 Z " fill="#5A7F64" transform="translate(55,286)"/>
<path d="M0 0 C11.05306548 -0.28061379 21.94361816 0.27939686 32.96289062 1.14794922 C41.90810336 1.85190281 50.85598565 2.46176048 59.8125 3 C60.48594452 3.04073639 61.15938904 3.08147278 61.85324097 3.1234436 C70.3220489 3.6335098 78.79265521 4.09978958 87.265625 4.53515625 C88.12544479 4.57949799 88.98526459 4.62383972 89.87113953 4.66952515 C94.06792636 4.88533066 98.26485269 5.09726187 102.4621582 5.30273438 C103.99691078 5.38014436 105.53166028 5.45761533 107.06640625 5.53515625 C107.75152283 5.56738785 108.4366394 5.59961945 109.14251709 5.63282776 C113.80464854 5.87194175 118.37703177 6.37868698 123 7 C120.63572929 9.36427071 118.40958647 10.28544423 115.375 11.6875 C104.1702811 17.24965113 97.3607478 24.82740615 93.125 36.6875 C90.05560429 48.28908496 91.20158685 60.60453518 97.1875 71 C97.785625 71.99 98.38375 72.98 99 74 C99 74.66 99 75.32 99 76 C90.42 76 81.84 76 73 76 C73.94875 74.040625 74.8975 72.08125 75.875 70.0625 C80.87298686 59.1470853 83.31758045 48.05810427 79.375 36.3125 C77.55333985 31.81039705 75.20426028 27.90486852 72.3671875 23.97265625 C71 22 71 22 70.0703125 19.87109375 C68.71408615 17.50017251 67.47766072 17.0638283 65 16 C63.78560409 15.1965896 62.57741932 14.38372681 61.375 13.5625 C51.07800096 7.19982052 39.03498387 6.45555831 27.2578125 8.46875 C25.02716356 9.13556321 23.07685081 9.94963867 21 11 C20.18273437 11.4021875 19.36546875 11.804375 18.5234375 12.21875 C12.03943177 15.74479541 7.57117255 20.25411271 3 26 C2.67 25.01 2.34 24.02 2 23 C2.33 22.34 2.66 21.68 3 21 C3.61341054 13.43853541 2.96533116 6.98970915 0 0 Z " fill="#5B8066" transform="translate(83,306)"/>
<path d="M0 0 C5.86918355 3.30276934 10.68594881 9.69065564 12.73828125 16.14453125 C14.36446023 24.92925069 12.71830553 31.8003834 7.796875 39.16796875 C3.58520538 44.57639695 -1.48270708 47.05803778 -7.8828125 49.19140625 C-15.21555246 49.95707388 -21.90790651 48.85543899 -28.0859375 44.71484375 C-34.04287006 39.88310957 -38.25130108 33.61338285 -39.15625 25.84375 C-39.46632573 17.55518711 -37.66094763 11.3108924 -31.98046875 5.1171875 C-22.36822065 -3.68327765 -12.04602471 -5.52269823 0 0 Z " fill="#C9C9C9" transform="translate(333.8828125,332.80859375)"/>
<path d="M0 0 C7.05356682 4.06010187 12.35607396 10.12549198 14.625 18 C15.76326679 27.34801604 13.61706668 34.42311911 7.875 41.8125 C3.80898506 46.27166651 -2.25972695 49.57029277 -8.3203125 50.203125 C-17.33264377 50.39693858 -24.01892518 48.19277637 -30.6484375 41.97265625 C-35.75044018 36.14344504 -37.7597262 29.39221737 -37.6484375 21.7578125 C-36.91546909 14.36530252 -33.79340648 8.39870451 -28.2734375 3.47265625 C-19.85527741 -3.05748028 -9.94506094 -4.47224539 0 0 Z " fill="#C9C9C9" transform="translate(228.375,332)"/>
<path d="M0 0 C5.31190666 3.82996168 8.60352192 8.54955926 11.15625 14.5546875 C12.24391791 23.74654765 11.4062868 31.37870297 6.46875 39.2421875 C0.95871103 44.75222647 -6.13807292 48.79398364 -14.03125 48.9921875 C-21.51810227 48.8507355 -27.08480444 45.89379352 -32.71875 41.1171875 C-39.16605194 33.34249987 -40.27678766 28.07721689 -40.18359375 18.10546875 C-39.53083002 11.28521318 -36.41243473 6.75510677 -31.46875 2.1796875 C-22.00083423 -5.10332463 -10.51004024 -6.03986078 0 0 Z " fill="#C8C8C8" transform="translate(135.84375,333.4453125)"/>
<path d="M0 0 C4.4498474 3.46520031 7.60232507 7.16144977 9.0234375 12.6796875 C10.08792249 21.49177195 10.11584455 29.26854329 4.71875 36.76171875 C-0.64844814 42.8338254 -7.91028309 45.09484579 -15.78515625 46.00390625 C-22.04280122 46.25560071 -26.91500533 45.49993255 -31.9765625 41.6796875 C-37.46878161 36.58529512 -41.50514167 31.2760406 -42.2890625 23.6328125 C-42.61037093 14.9173214 -41.31058912 9.44115343 -35.5390625 2.9296875 C-34.270625 1.8159375 -34.270625 1.8159375 -32.9765625 0.6796875 C-32.1928125 -0.0421875 -31.4090625 -0.7640625 -30.6015625 -1.5078125 C-20.82283361 -8.25979197 -9.32156356 -6.22665708 0 0 Z " fill="#C9C9C9" transform="translate(432.9765625,335.3203125)"/>
<path d="M0 0 C1.75919814 -0.0026992 3.51839482 -0.00658516 5.27758789 -0.01159668 C8.95245665 -0.01747165 12.62693472 -0.00899379 16.30175781 0.00976562 C20.9923259 0.03255414 25.68197825 0.01942024 30.37251282 -0.00452423 C34.00157465 -0.01903665 37.63042239 -0.0143514 41.25949097 -0.00401306 C42.98810944 -0.00136079 44.7167479 -0.00456228 46.44534302 -0.01393127 C57.45892678 -0.06053706 66.83695676 0.22098176 75.375 8.03125 C76.01308594 8.5984375 76.65117187 9.165625 77.30859375 9.75 C79.93740185 12.62466785 80.9375 14.61777509 80.9375 18.53125 C41.9975 18.53125 3.0575 18.53125 -37.0625 18.53125 C-34.77793895 11.67756685 -34.77793895 11.67756685 -31.5 8.40625 C-30.87996094 7.76429688 -30.25992188 7.12234375 -29.62109375 6.4609375 C-20.47427857 -0.43757655 -10.98320262 -0.05952902 0 0 Z " fill="#85BB94" transform="translate(238.0625,129.46875)"/>
<path d="M0 0 C22.10350003 0.42647197 43.99503892 1.90118675 66 4 C63.89600516 6.14665468 61.87055173 8.09878947 59.4765625 9.92578125 C52.05605066 16.14075253 47.55241994 25.92338067 46.6875 35.4375 C46.32910454 46.36856161 48.34466836 55.63386336 54 65 C54 65.66 54 66.32 54 67 C42.78 67 31.56 67 20 67 C21.04447863 64.38880343 22.1023227 61.78016123 23.2890625 59.23046875 C28.01289229 48.47063422 29.18092949 36.62194697 25.09375 25.36328125 C20.29123104 14.98640992 13.55679175 6.67058101 2.875 2 C1.92625 1.67 0.9775 1.34 0 1 C0 0.67 0 0.34 0 0 Z " fill="#5C8267" transform="translate(232,315)"/>
<path d="M0 0 C34.32 0 68.64 0 104 0 C104 5.61 104 11.22 104 17 C69.68 17 35.36 17 0 17 C0 11.39 0 5.78 0 0 Z " fill="#6A9676" transform="translate(52,165)"/>
<path d="M0 0 C8.99543916 -0.13410739 17.85028974 0.24421247 26.8125 1 C28.58463867 1.14308594 28.58463867 1.14308594 30.39257812 1.2890625 C33.26213071 1.52141494 36.13121003 1.75844474 39 2 C38.5987793 2.51949219 38.19755859 3.03898437 37.78417969 3.57421875 C29.7573612 14.0951365 24.75616107 24.55099159 26 38 C27.42086158 46.39196368 30.06992433 52.13984866 34 60 C25.42 60 16.84 60 8 60 C9.59198587 56.02003532 11.28772532 52.16064912 13.09765625 48.28125 C16.60701036 39.40911666 16.26246574 27.3502582 13.11328125 18.41015625 C9.90333393 11.46090187 5.76652417 5.06755155 0 0 Z " fill="#5B8066" transform="translate(348,322)"/>
<path d="M0 0 C4.3036603 2.48288094 6.9983568 5.37171359 9.25 9.875 C9.77779267 16.0867137 9.99403643 21.633349 6.25 26.875 C1.92240376 31.21442028 -1.82049043 33.02778728 -7.9375 33.3125 C-13.27104961 33.27011418 -16.19003447 32.01107605 -20.15625 28.5 C-23.9815598 24.59968413 -24.94290266 21.93302582 -25.1875 16.5 C-25.01511333 11.36977279 -24.27537864 7.69829796 -20.75 3.875 C-14.24597063 -1.89494027 -8.13805077 -2.44141523 0 0 Z " fill="#CACACA" transform="translate(59.75,305.125)"/>
<path d="M0 0 C4.3036603 2.48288094 6.9983568 5.37171359 9.25 9.875 C9.7572965 15.43031248 10.01260422 20.29330236 7.5625 25.375 C3.73077308 29.51740748 0.56696046 32.50527511 -5.203125 33.1484375 C-10.88758454 33.35485642 -14.89628168 33.21455807 -19.3125 29.4140625 C-23.1922378 25.26021279 -24.97777146 21.680737 -25.3125 15.9375 C-25.06721628 10.56578645 -23.35631277 6.83737909 -19.75 2.875 C-13.83026476 -2.32496594 -7.24693537 -2.17408061 0 0 Z " fill="#CACACA" transform="translate(484.75,331.125)"/>
<path d="M0 0 C1.75919814 -0.0026992 3.51839482 -0.00658516 5.27758789 -0.01159668 C8.95245665 -0.01747165 12.62693472 -0.00899379 16.30175781 0.00976562 C20.9923259 0.03255414 25.68197825 0.01942024 30.37251282 -0.00452423 C34.00157465 -0.01903665 37.63042239 -0.0143514 41.25949097 -0.00401306 C42.98810944 -0.00136079 44.7167479 -0.00456228 46.44534302 -0.01393127 C63.73035706 -0.08707564 63.73035706 -0.08707564 70.9375 4.53125 C72.2059375 5.335625 72.2059375 5.335625 73.5 6.15625 C73.974375 6.61 74.44875 7.06375 74.9375 7.53125 C74.9375 8.19125 74.9375 8.85125 74.9375 9.53125 C39.9575 9.53125 4.9775 9.53125 -31.0625 9.53125 C-22.65335936 -0.9801758 -12.5236739 -0.06787839 0 0 Z " fill="#95D2A5" transform="translate(238.0625,129.46875)"/>
<path d="M0 0 C5.94 0 11.88 0 18 0 C18 11.55 18 23.1 18 35 C12.06 35 6.12 35 0 35 C0 23.45 0 11.9 0 0 Z " fill="#7FB38D" transform="translate(17,156)"/>
<path d="M0 0 C3.20083553 1.64614399 5.24803524 3.97459352 7.375 6.875 C8.73624093 11.50321917 8.54963256 15.46416166 6.375 19.75 C4.16489942 23.2008588 1.93735477 24.68754841 -2 26 C-6.24620247 26.53077531 -8.40893024 26.29553488 -12.25 24.375 C-16.35422338 20.83044344 -17.76759618 17.85923054 -18.4375 12.5 C-17.82419389 7.59355115 -15.82551289 4.63130939 -12.1640625 1.359375 C-8.33973723 -1.04290874 -4.35166726 -0.74129348 0 0 Z " fill="#070707" transform="translate(222,343)"/>
<path d="M0 0 C4.33976986 2.25334204 7.09688482 4.45366929 9 9 C9.56716439 14.19900694 8.98034741 17.67368925 6 22 C2.02109303 25.10354744 -0.56539726 26.34921082 -5.625 26.0625 C-10.06464248 25.32129904 -12.23223194 23.60648566 -15 20 C-17.47951515 16.45783549 -17.43891203 13.24281627 -17 9 C-13.35972015 1.7194403 -8.06493891 -1.00811736 0 0 Z " fill="#060606" transform="translate(325,343)"/>
<path d="M0 0 C3.160755 2.13167197 4.32031654 3.24263207 5.6875 6.8125 C6.30904262 10.94230541 6.66100377 14.92343911 4.703125 18.72265625 C2.477859 21.51797496 0.12682951 23.8009325 -3.3125 24.8125 C-7.57470512 25.28607835 -9.7585029 25.11080613 -13.5625 23.0625 C-16.73299713 20.46845689 -19.02349158 18.55505076 -19.7109375 14.41015625 C-19.62936624 5.58686503 -19.62936624 5.58686503 -16.3125 1.8125 C-11.26876438 -2.36659523 -5.8623559 -2.10159928 0 0 Z " fill="#050505" transform="translate(128.3125,344.1875)"/>
<path d="M0 0 C2.74104107 1.78486395 3.99697352 2.98896821 5.6875 5.75 C6.47373141 10.08737663 6.700656 14.71162661 4.703125 18.73046875 C2.49052318 21.49622102 0.09356975 23.74821478 -3.3125 24.75 C-7.5362944 25.21931049 -9.76577135 25.03387834 -13.5625 23.0625 C-16.98001786 20.18867816 -18.99822901 18.14631627 -19.59375 13.60546875 C-19.78234523 8.86701368 -19.49945321 5.4864279 -16.3125 1.75 C-11.26574696 -2.43159538 -5.838211 -2.20309849 0 0 Z " fill="#050505" transform="translate(423.3125,344.25)"/>
<path d="M0 0 C5.94 0 11.88 0 18 0 C18 5.94 18 11.88 18 18 C12.06 18 6.12 18 0 18 C0 12.06 0 6.12 0 0 Z " fill="#090D0A" transform="translate(286,182)"/>
<path d="M0 0 C5.61 0 11.22 0 17 0 C17 5.61 17 11.22 17 17 C11.39 17 5.78 17 0 17 C0 11.39 0 5.78 0 0 Z " fill="#010202" transform="translate(252,182)"/>
<path d="M0 0 C5.61 0 11.22 0 17 0 C17 5.61 17 11.22 17 17 C11.39 17 5.78 17 0 17 C0 11.39 0 5.78 0 0 Z " fill="#010202" transform="translate(217,182)"/>
<path d="M0 0 C2.97 0 5.94 0 9 0 C9 5.61 9 11.22 9 17 C6.03 17 3.06 17 0 17 C0 11.39 0 5.78 0 0 Z " fill="#5D8468" transform="translate(52,165)"/>
<path d="M0 0 C2.64 0 5.28 0 8 0 C8 5.61 8 11.22 8 17 C5.36 17 2.72 17 0 17 C0 11.39 0 5.78 0 0 Z " fill="#5E8569" transform="translate(148,165)"/>
<path d="M0 0 C0.33 0.66 0.66 1.32 1 2 C0.33333333 4 -0.33333333 6 -1 8 C-1.44084409 10.66423169 -1.72188815 13.31158543 -2 16 C-7.75 12.375 -7.75 12.375 -10 9 C-5.25 5 -5.25 5 -3 5 C-2.690625 4.360625 -2.38125 3.72125 -2.0625 3.0625 C-1 1 -1 1 0 0 Z " fill="#577760" transform="translate(80,341)"/>
<path d="M0 0 C2.5625 0.1875 2.5625 0.1875 4.5625 2.1875 C4.00694444 6.74305556 4.00694444 6.74305556 2.5625 8.1875 C0.125 8.375 0.125 8.375 -2.4375 8.1875 C-3.0975 7.5275 -3.7575 6.8675 -4.4375 6.1875 C-3.71780303 0.28598485 -3.71780303 0.28598485 0 0 Z " fill="#CACACA" transform="translate(416.4375,351.8125)"/>
<path d="M0 0 C2.5625 0.1875 2.5625 0.1875 4.5625 2.1875 C4.00694444 6.74305556 4.00694444 6.74305556 2.5625 8.1875 C0.125 8.375 0.125 8.375 -2.4375 8.1875 C-3.0975 7.5275 -3.7575 6.8675 -4.4375 6.1875 C-3.71780303 0.28598485 -3.71780303 0.28598485 0 0 Z " fill="#CACACA" transform="translate(121.4375,351.8125)"/>
<path d="M0 0 C3 0.125 3 0.125 4 1.125 C4.1875 3.5625 4.1875 3.5625 4 6.125 C3.34 6.785 2.68 7.445 2 8.125 C-2.55555556 7.56944444 -2.55555556 7.56944444 -4 6.125 C-4.125 3.625 -4.125 3.625 -4 1.125 C-3 0.125 -3 0.125 0 0 Z " fill="#D1D1D1" transform="translate(321,351.875)"/>
<path d="M0 0 C3 0.125 3 0.125 4 1.125 C4.1875 3.5625 4.1875 3.5625 4 6.125 C3.34 6.785 2.68 7.445 2 8.125 C-2.55555556 7.56944444 -2.55555556 7.56944444 -4 6.125 C-4.125 3.625 -4.125 3.625 -4 1.125 C-3 0.125 -3 0.125 0 0 Z " fill="#D2D2D2" transform="translate(217,351.875)"/>
</svg>
